<?xml version="1.0" standalone="no"?>
<!DOCTYPE svg PUBLIC "-//W3C//DTD SVG 20010904//EN"
 "http://www.w3.org/TR/2001/REC-SVG-20010904/DTD/svg10.dtd">
<svg version="1.0" xmlns="http://www.w3.org/2000/svg"
 width="886.000000pt" height="560.000000pt" viewBox="0 0 886.000000 560.000000" 
 preserveAspectRatio="xMidYMid meet">

<g transform="translate(0.000000,560.000000) scale(0.100000,-0.100000)"
 color="#00A651" fill="currentcolor" stroke="none">
<path d="M3991 5496 c-194 -226 -450 -586 -530 -744 -74 -148 -134 -344 -149
-492 l-7 -74 -49 84 c-125 216 -258 355 -585 609 -235 182 -411 305 -422 294
-10 -10 99 -112 376 -353 253 -219 439 -426 528 -587 59 -105 105 -231 121
-328 8 -50 17 -101 20 -115 5 -22 -2 -30 -49 -63 -119 -82 -241 -278 -284
-457 -36 -152 -44 -251 -38 -490 8 -323 46 -542 131 -752 24 -60 40 -108 35
-108 -11 0 -183 194 -249 280 -75 98 -429 634 -452 683 -29 62 -75 216 -96
322 -67 328 -115 884 -110 1275 l3 235 13 -100 c32 -241 88 -450 201 -748 119
-314 135 -385 151 -657 12 -207 31 -323 71 -444 36 -109 116 -266 135 -266 19
0 18 15 -6 76 -25 68 -65 230 -80 324 -6 41 -16 188 -21 325 -11 316 -19 354
-126 628 -182 466 -252 761 -278 1157 -8 136 -16 200 -25 200 -9 0 -75 -202
-95 -290 -43 -194 -50 -277 -49 -610 0 -263 4 -364 22 -530 34 -311 51 -444
77 -570 13 -63 21 -117 19 -119 -2 -2 -38 29 -80 68 -306 285 -835 563 -1194
625 -159 28 -208 28 -344 6 -70 -11 -131 -18 -135 -15 -5 2 -14 -2 -21 -10
-24 -29 63 -178 184 -314 32 -35 56 -65 54 -66 -2 -2 -41 6 -88 17 -158 38
-394 11 -496 -55 -67 -45 -80 -107 -40 -192 50 -105 385 -566 596 -818 346
-414 641 -690 812 -759 69 -28 80 -38 39 -38 -61 0 -241 -31 -329 -56 -125
-36 -293 -121 -408 -207 -125 -94 -301 -273 -488 -497 -12 -13 30 24 92 83
131 124 334 289 442 360 245 160 487 227 823 227 203 0 331 -21 477 -77 62
-23 68 -29 120 -106 75 -112 180 -235 290 -341 77 -74 88 -88 64 -83 -16 4
-76 12 -134 18 -213 23 -443 -15 -930 -152 -173 -49 -372 -100 -441 -114 -323
-63 -620 -57 -816 17 -30 11 -57 18 -59 15 -8 -8 177 -99 260 -127 45 -15 131
-50 191 -78 565 -257 1547 -456 2040 -412 412 36 604 120 1063 463 100 75 215
159 255 186 80 54 147 113 147 129 0 22 -29 18 -76 -11 -416 -260 -935 -211
-1369 128 -227 177 -493 515 -577 732 -27 69 -52 172 -45 180 2 1 23 -15 47
-37 117 -108 445 -226 820 -294 74 -13 259 -41 410 -61 765 -100 1018 -174
1090 -316 15 -29 20 -59 20 -126 0 -181 64 -337 190 -464 66 -67 140 -119 169
-119 5 0 -16 26 -48 58 -67 68 -117 158 -168 308 -33 97 -37 120 -37 209 -1
89 2 106 26 151 52 99 170 181 325 226 69 20 100 23 263 22 162 0 201 -3 314
-27 166 -35 334 -92 646 -217 489 -197 798 -291 1095 -333 l89 -13 -109 -61
c-61 -34 -200 -121 -310 -195 -110 -74 -250 -160 -312 -191 -272 -139 -606
-208 -936 -194 -232 11 -371 37 -595 114 -73 25 -136 42 -139 39 -20 -20 141
-102 320 -161 226 -75 406 -101 627 -92 136 6 324 34 413 61 45 13 58 13 175
-9 299 -55 449 -69 757 -69 330 -1 452 12 689 71 300 75 549 197 749 368 75
63 197 200 197 221 0 7 -28 32 -62 55 -35 24 -109 78 -165 120 -302 230 -629
370 -966 414 l-49 7 109 65 c306 183 556 405 779 690 119 151 184 289 184 387
l0 41 -24 -58 c-28 -67 -69 -123 -199 -274 -295 -339 -663 -623 -1027 -790
-210 -97 -507 -197 -704 -238 -148 -31 -93 -44 -506 115 -168 65 -365 137
-438 161 -72 23 -131 44 -129 46 2 2 29 10 60 18 78 20 185 76 253 131 121 99
576 282 1019 411 209 60 757 198 1042 263 100 22 233 57 295 76 124 39 305
123 333 154 17 19 17 22 3 36 -13 14 -27 11 -133 -26 -122 -42 -515 -143 -523
-135 -3 2 11 22 30 43 49 54 203 261 276 369 79 117 156 245 245 403 38 69 71
128 74 133 2 4 2 7 0 7 -3 0 -28 -33 -57 -72 -109 -151 -567 -735 -621 -793
-105 -112 -155 -132 -559 -230 -102 -24 -256 -65 -344 -90 -87 -25 -160 -44
-162 -42 -2 1 31 32 74 67 42 36 138 119 212 185 357 318 394 346 844 629 136
85 299 194 364 242 126 94 352 310 352 337 0 46 -71 37 -260 -33 -47 -18 -182
-65 -300 -105 -334 -113 -446 -167 -594 -285 -42 -33 -78 -60 -81 -60 -3 0 1
12 9 28 25 49 74 215 86 295 33 206 -38 860 -117 1075 -14 41 -33 76 -40 79
-8 3 -72 -33 -142 -80 -243 -164 -500 -468 -667 -788 l-28 -54 -8 110 c-9 130
-30 263 -64 400 -35 143 -174 588 -188 602 -8 8 -60 -6 -211 -56 -244 -82
-334 -119 -540 -224 -161 -82 -397 -233 -511 -326 l-61 -51 -6 73 c-7 92 -43
201 -116 352 -103 215 -213 374 -421 610 -189 215 -243 292 -278 395 -18 52
-39 65 -33 20 6 -49 53 -196 81 -257 38 -82 100 -177 211 -325 188 -248 322
-484 390 -688 36 -107 45 -234 21 -303 -8 -20 -47 -79 -87 -130 -92 -115 -186
-270 -231 -382 -37 -92 -74 -231 -74 -280 0 -22 -7 -11 -25 43 -32 92 -65 158
-154 306 -138 228 -196 304 -224 293 -10 -4 20 -73 115 -261 125 -249 189
-409 202 -507 l7 -46 -85 -48 c-164 -92 -264 -193 -337 -340 -58 -118 -80
-215 -86 -380 -11 -276 69 -625 175 -763 18 -24 32 -46 29 -48 -2 -2 -57 7
-123 21 -66 14 -178 34 -249 45 -103 15 -136 25 -169 47 -65 43 -218 202 -265
273 -132 203 -220 476 -252 788 -17 167 -6 523 19 632 73 309 229 501 477 586
106 36 273 44 395 20 45 -10 84 -15 87 -12 20 20 -93 61 -214 77 -100 13 -218
0 -326 -36 -39 -14 -74 -25 -76 -25 -2 0 -1 87 2 193 7 211 25 319 78 480 62
184 151 336 380 652 158 217 211 294 254 368 26 46 27 49 10 67 -10 11 -22 20
-26 20 -5 0 -49 -47 -98 -104z m2312 -843 c3 -10 8 -36 12 -58 3 -22 33 -157
65 -300 92 -406 104 -487 104 -715 -1 -150 -4 -205 -16 -240 -9 -25 -37 -103
-62 -173 -68 -188 -109 -339 -156 -562 -22 -109 -42 -201 -44 -203 -2 -2 -9
30 -16 70 -42 249 -159 493 -310 646 -57 57 -217 168 -228 157 -3 -3 15 -26
39 -52 199 -213 339 -507 385 -808 20 -125 14 -361 -10 -450 -25 -92 -81 -198
-139 -261 -43 -48 -72 -67 -172 -115 -66 -32 -163 -74 -215 -93 -88 -31 -99
-33 -155 -24 -99 16 -376 4 -473 -21 -162 -41 -309 -126 -374 -217 l-31 -43
-45 40 c-63 55 -133 93 -237 128 -49 16 -95 38 -102 47 -39 53 -115 397 -135
607 -33 358 72 629 303 783 102 67 218 114 537 214 374 118 524 172 650 230
101 48 117 65 87 90 -30 25 -186 -15 -674 -175 -210 -70 -385 -125 -387 -123
-2 2 10 51 27 108 163 564 553 965 1263 1300 88 41 232 110 320 152 89 42 166
77 173 78 6 0 14 -8 16 -17z m1115 -450 c83 -571 84 -762 5 -993 -59 -175
-223 -454 -403 -686 -120 -155 -422 -454 -535 -531 -124 -83 -315 -177 -330
-161 -7 6 223 364 312 486 43 59 128 164 190 235 337 382 436 573 558 1071 42
173 138 659 150 759 4 26 9 47 13 47 4 0 22 -102 40 -227z m-101 155 c-2 -13
-45 -185 -95 -383 -104 -410 -157 -576 -243 -755 -103 -215 -170 -309 -394
-560 -66 -74 -147 -166 -180 -205 -59 -71 -175 -240 -175 -256 0 -5 -4 -9 -10
-9 -5 0 -10 20 -10 45 0 53 214 712 315 971 133 340 275 596 460 829 49 62
322 345 333 345 2 0 2 -10 -1 -22z m-6462 -637 c388 -80 935 -381 1236 -681
141 -141 207 -226 437 -567 184 -272 296 -417 406 -521 71 -67 203 -163 244
-177 9 -3 31 -24 47 -46 37 -51 143 -149 203 -189 41 -27 43 -30 20 -30 -38 0
-378 47 -509 70 -236 43 -496 118 -654 189 -155 71 -218 190 -141 267 31 31
39 34 93 34 102 0 241 -62 366 -164 80 -65 86 -65 29 -1 -121 137 -243 217
-363 237 -120 20 -188 -17 -235 -129 -27 -63 -29 -77 -29 -198 1 -121 3 -136
34 -220 49 -135 47 -129 23 -116 -41 22 -189 51 -317 62 -140 12 -200 30 -302
90 -129 77 -523 495 -848 899 -108 135 -335 441 -335 453 0 5 33 -22 74 -58
143 -130 263 -212 765 -522 371 -230 545 -364 653 -501 103 -133 148 -169 148
-119 -1 60 -102 211 -219 325 -136 132 -281 230 -826 555 -352 210 -460 283
-594 399 -87 75 -211 209 -211 228 0 6 11 22 24 35 57 57 326 40 564 -36 51
-17 101 -29 112 -27 15 2 78 -63 251 -257 304 -342 455 -501 630 -665 79 -74
139 -128 133 -120 -37 49 -265 344 -302 390 -24 30 -112 133 -196 229 -83 95
-152 177 -154 182 -2 5 50 -23 115 -63 65 -39 249 -139 408 -221 450 -230 617
-337 794 -503 62 -58 82 -72 87 -60 13 34 -191 250 -352 373 -149 113 -276
190 -627 377 -481 256 -566 320 -902 680 l-140 149 130 -6 c72 -3 175 -15 230
-26z m7591 -350 c-12 -19 -250 -173 -481 -311 -419 -250 -525 -328 -767 -560
-76 -72 -138 -129 -138 -125 0 3 33 49 74 103 83 110 200 284 252 378 60 107
192 212 377 299 114 54 196 82 456 161 217 65 236 70 227 55z m-734 -2167
c115 -31 289 -99 433 -171 98 -49 172 -89 504 -273 46 -25 83 -50 83 -55 0 -5
-27 -26 -61 -46 -77 -46 -133 -57 -384 -70 -192 -10 -973 -3 -1050 10 l-38 6
88 53 c48 30 128 77 177 105 130 76 167 111 173 168 10 92 -56 188 -165 240
l-47 21 45 24 c54 29 98 26 242 -12z m-271 -85 c88 -59 119 -100 119 -158 0
-72 -19 -85 -117 -78 -141 10 -613 108 -613 127 0 4 23 10 51 14 85 11 268 61
379 103 58 22 110 38 115 35 6 -3 35 -22 66 -43z m-4811 -382 c113 -27 149
-40 309 -111 195 -88 423 -129 604 -110 48 6 87 7 87 4 0 -3 -66 -49 -146
-103 -234 -157 -433 -242 -659 -283 -137 -25 -465 -25 -660 0 -366 46 -964
174 -1375 294 l-65 19 80 7 c222 19 389 55 740 161 251 75 374 107 495 129
131 23 144 24 320 21 132 -3 186 -9 270 -28z m4561 -187 c115 -22 375 -50 570
-61 243 -14 626 -6 717 14 34 7 62 11 62 7 0 -12 -207 -130 -306 -174 -382
-169 -749 -220 -1399 -196 -187 7 -347 16 -355 21 -10 6 -11 8 -2 9 22 0 199
87 295 144 51 31 153 98 227 151 73 52 134 95 135 95 1 0 27 -5 56 -10z"/>
</g>
</svg>
