<?xml version="1.0" standalone="no"?>
<!DOCTYPE svg PUBLIC "-//W3C//DTD SVG 20010904//EN"
 "http://www.w3.org/TR/2001/REC-SVG-20010904/DTD/svg10.dtd">
<svg version="1.0" xmlns="http://www.w3.org/2000/svg"
 width="910.000000pt" height="908.000000pt" viewBox="0 0 910.000000 908.000000"
 preserveAspectRatio="xMidYMid meet">

<g transform="translate(0.000000,908.000000) scale(0.100000,-0.100000)"
color="white" fill="currentcolor" stroke="none">
<path d="M4147 9032 c-171 -180 -492 -624 -582 -802 -74 -148 -134 -344 -150
-498 l-7 -64 -45 79 c-93 163 -230 321 -406 466 -242 200 -584 450 -608 445
-7 -2 -15 8 -19 22 l-7 25 -8 -30 c-4 -16 -13 -44 -20 -60 -26 -58 -66 -210
-86 -325 -34 -198 -44 -431 -31 -683 18 -324 63 -739 102 -925 11 -52 20 -100
20 -105 0 -5 -33 19 -72 55 -284 251 -662 470 -1003 582 -160 52 -367 82 -465
67 -30 -5 -97 -15 -147 -22 -80 -11 -93 -16 -93 -32 0 -37 74 -159 157 -258
46 -56 83 -102 81 -104 -2 -2 -28 3 -58 12 -147 39 -372 23 -490 -35 -69 -34
-93 -67 -93 -125 1 -57 24 -101 146 -277 313 -451 575 -768 893 -1081 183
-180 255 -235 377 -294 l88 -42 -78 -7 c-252 -23 -443 -90 -646 -226 -132 -89
-232 -182 -408 -382 l-144 -163 121 110 c246 225 415 350 588 436 199 97 394
139 654 139 202 0 356 -24 489 -77 53 -21 66 -32 98 -81 74 -112 171 -229 283
-341 95 -95 110 -113 86 -108 -16 4 -76 11 -133 17 -205 21 -463 -20 -881
-139 -459 -130 -599 -159 -831 -168 -200 -8 -354 13 -514 71 l-20 8 20 -17
c33 -27 146 -82 236 -114 46 -16 140 -54 209 -84 604 -264 1543 -452 2039
-408 403 36 599 123 1066 472 99 74 209 155 244 178 80 55 141 109 141 127 0
27 -20 23 -90 -20 -265 -164 -611 -200 -921 -96 -218 73 -401 192 -594 385
-243 243 -431 543 -452 719 l-6 51 51 -46 c89 -81 262 -157 509 -224 180 -50
341 -79 680 -125 705 -95 958 -156 1076 -260 57 -50 70 -81 68 -171 -2 -107
22 -207 77 -319 36 -74 62 -110 117 -166 63 -63 171 -132 185 -117 3 2 -4 9
-15 15 -97 52 -228 311 -254 499 -20 150 20 249 135 336 131 100 297 140 533
130 253 -11 445 -64 921 -254 302 -121 445 -172 652 -232 150 -44 351 -87 447
-97 33 -4 61 -10 61 -13 0 -3 -42 -28 -93 -55 -50 -26 -150 -87 -220 -135
-323 -218 -459 -293 -647 -355 -289 -96 -642 -120 -965 -67 -128 22 -164 31
-344 92 -63 21 -118 36 -121 33 -18 -19 128 -95 294 -153 326 -114 693 -131
1023 -47 l92 23 123 -23 c303 -56 445 -68 763 -69 237 0 325 4 420 18 255 38
486 107 678 204 176 88 269 155 405 289 139 140 148 160 85 193 -21 10 -92 60
-158 111 -275 210 -565 351 -845 410 -52 11 -111 20 -130 20 -72 1 -63 15 55
85 300 178 608 459 810 740 90 124 146 263 144 355 l0 35 -15 -47 c-21 -68
-91 -167 -234 -329 -399 -454 -851 -747 -1440 -933 -171 -54 -374 -99 -411
-92 -14 3 -138 48 -275 101 -300 116 -493 187 -593 216 l-74 22 94 31 c105 34
158 63 239 128 61 49 184 109 418 203 321 128 720 246 1302 385 541 129 595
142 680 172 103 36 280 125 287 145 3 8 -1 21 -8 29 -12 12 -30 8 -127 -26
-93 -33 -495 -140 -525 -140 -5 0 11 24 35 53 77 89 246 321 324 444 77 120
264 444 264 457 0 4 -28 -30 -62 -76 -33 -45 -147 -193 -251 -328 -355 -457
-380 -485 -469 -544 -67 -44 -125 -63 -373 -121 -110 -26 -285 -72 -389 -101
-104 -30 -193 -54 -198 -54 -5 0 31 33 79 74 48 41 162 140 253 221 287 256
387 331 750 557 283 177 426 277 556 389 105 90 204 198 204 222 0 45 -64 35
-266 -39 -54 -20 -198 -69 -319 -110 -309 -105 -457 -179 -588 -295 -26 -23
-50 -40 -52 -37 -2 2 11 44 30 93 54 146 69 230 68 400 0 259 -63 721 -120
885 -27 77 -39 100 -54 100 -21 0 -254 -167 -323 -231 -154 -144 -359 -416
-461 -612 -22 -42 -43 -77 -47 -77 -5 0 -8 39 -8 88 0 107 -21 248 -59 407
-36 147 -180 608 -192 616 -15 9 -405 -125 -554 -190 -254 -113 -507 -262
-683 -404 -80 -65 -100 -78 -87 -57 10 16 -13 146 -41 229 -36 109 -141 319
-221 441 -75 114 -156 216 -327 410 -60 69 -131 158 -157 198 -42 64 -89 165
-89 192 0 6 -5 10 -11 10 -29 0 30 -211 94 -334 38 -74 67 -116 259 -379 141
-194 251 -394 318 -582 36 -102 50 -232 31 -301 -12 -44 -19 -55 -121 -188
-151 -197 -228 -364 -277 -606 -4 -20 -11 -8 -37 61 -55 146 -303 550 -346
564 -12 4 -24 5 -26 2 -3 -3 55 -126 129 -273 134 -270 184 -397 194 -496 l5
-53 -58 -29 c-324 -157 -486 -484 -445 -899 25 -258 98 -501 183 -609 16 -21
27 -38 24 -38 -4 0 -62 11 -131 25 -68 14 -180 34 -249 44 -147 23 -174 37
-297 160 -163 163 -279 392 -342 682 -42 191 -52 289 -51 539 0 205 3 248 23
339 69 322 231 524 491 611 92 31 268 38 379 16 46 -9 85 -15 88 -12 20 19
-91 60 -209 76 -110 15 -267 -7 -379 -54 -24 -10 -30 70 -20 249 24 388 118
606 461 1075 144 197 270 388 270 411 0 10 -9 23 -19 29 -17 8 -27 3 -64 -38z
m-1756 -428 c18 -20 140 -130 269 -244 516 -455 669 -670 725 -1018 l16 -97
-23 -14 c-13 -8 -60 -51 -105 -97 -68 -68 -90 -100 -132 -186 -106 -212 -139
-464 -111 -829 20 -253 65 -465 135 -630 19 -46 35 -86 35 -88 0 -13 -140 134
-210 220 -42 53 -170 236 -283 406 -169 256 -211 327 -240 404 -37 99 -76 260
-101 418 -21 129 -63 558 -76 768 -19 329 -8 743 13 487 16 -187 89 -467 191
-732 126 -328 139 -385 161 -688 17 -247 43 -382 98 -515 85 -204 160 -278 96
-95 -64 184 -86 330 -98 666 -11 280 -17 313 -108 550 -158 413 -215 610 -257
880 -19 126 -45 382 -46 463 0 16 17 6 51 -29z m4024 -501 c3 -27 38 -187 75
-358 90 -405 103 -502 97 -725 l-4 -175 -61 -165 c-75 -206 -122 -376 -171
-617 -21 -103 -41 -181 -44 -173 -3 8 -10 44 -17 80 -27 158 -110 368 -190
484 -91 133 -171 208 -295 277 l-60 34 34 -40 c186 -221 275 -372 345 -588 59
-180 84 -392 67 -558 -14 -127 -31 -192 -77 -279 -60 -115 -102 -154 -238
-222 -66 -33 -167 -78 -223 -99 -95 -36 -105 -38 -160 -29 -89 15 -310 12
-408 -5 -109 -19 -243 -69 -317 -118 -55 -37 -124 -105 -145 -142 -10 -17 -15
-15 -63 28 -61 55 -158 106 -254 133 -68 19 -70 20 -93 71 -27 60 -84 302
-107 459 -9 58 -16 164 -16 237 0 289 81 488 255 624 127 100 215 135 833 333
218 69 403 141 470 182 24 14 32 26 30 42 -7 49 -153 15 -681 -160 -208 -69
-381 -123 -385 -120 -8 8 41 169 89 291 79 203 213 401 393 581 197 196 386
324 731 494 315 155 557 270 571 270 7 0 15 -21 19 -47z m1085 -233 c0 -22 7
-84 16 -138 28 -177 53 -385 66 -545 20 -268 -11 -427 -131 -672 -193 -393
-581 -856 -891 -1062 -110 -74 -281 -155 -296 -140 -10 10 232 387 346 537 32
41 111 137 178 213 296 337 387 506 502 925 41 148 164 740 175 842 8 68 12
80 25 80 5 0 10 -18 10 -40z m-75 -27 c-3 -10 -47 -180 -97 -378 -104 -415
-156 -581 -238 -753 -108 -225 -181 -329 -425 -602 -170 -190 -259 -303 -309
-389 l-31 -56 -3 57 c-3 50 12 102 126 445 149 448 215 619 317 828 142 288
292 501 506 717 80 82 149 148 153 148 5 0 5 -8 1 -17z m-6585 -623 c261 -32
557 -148 887 -348 303 -184 485 -338 644 -547 42 -55 154 -215 249 -355 291
-431 428 -584 621 -693 42 -23 80 -56 109 -92 41 -52 176 -170 207 -182 7 -3
13 -8 13 -12 0 -14 -481 56 -685 100 -142 31 -385 107 -485 152 -121 55 -180
119 -180 195 0 54 12 77 50 97 95 49 285 -21 466 -173 l79 -66 -60 68 c-133
152 -254 234 -379 257 -121 22 -192 -19 -242 -139 -25 -59 -28 -79 -28 -177 0
-118 16 -193 59 -292 14 -31 25 -57 25 -59 0 -1 -25 6 -55 16 -76 26 -149 39
-293 51 -144 11 -199 29 -309 101 -125 81 -422 392 -748 783 -104 124 -425
548 -425 560 0 4 43 -31 95 -77 124 -108 266 -206 555 -386 606 -376 720 -462
873 -654 90 -113 134 -138 118 -66 -11 45 -31 82 -87 158 -141 192 -303 314
-837 631 -357 212 -477 288 -600 380 -105 78 -236 202 -295 277 l-34 42 29 29
c23 23 42 30 90 36 114 13 332 -19 482 -70 41 -14 87 -25 101 -25 23 0 67 -44
274 -277 220 -247 734 -778 744 -769 2 2 -28 44 -65 93 -38 48 -117 149 -176
224 -58 75 -174 214 -257 308 -83 95 -150 175 -147 177 2 2 56 -28 121 -67 64
-38 255 -141 424 -228 442 -228 584 -317 753 -479 66 -62 93 -82 101 -74 23
23 -155 221 -306 341 -161 127 -312 220 -645 398 -439 234 -575 327 -751 509
-58 60 -151 157 -207 216 -57 59 -103 109 -103 112 0 10 139 7 230 -4z m7720
-364 c0 -11 -288 -196 -503 -325 -406 -241 -510 -317 -744 -543 -78 -76 -145
-138 -149 -138 -8 0 -2 7 94 133 64 85 139 197 251 380 96 156 353 297 761
416 96 28 195 57 220 65 47 15 70 19 70 12z m-8386 -142 c3 -8 2 -12 -4 -9 -6
3 -10 10 -10 16 0 14 7 11 14 -7z m7631 -2029 c141 -37 251 -80 432 -170 231
-114 603 -319 603 -333 0 -9 -94 -63 -138 -79 -84 -31 -234 -38 -792 -36 -305
1 -566 6 -579 11 -23 8 -20 11 50 54 41 25 112 67 158 93 102 57 178 111 191
135 16 30 11 112 -9 155 -21 48 -99 119 -147 137 -19 7 -34 15 -34 20 0 4 19
16 43 27 50 24 89 21 222 -14z m-260 -86 c86 -59 115 -94 122 -148 10 -76 -33
-104 -142 -89 -199 26 -599 113 -590 128 2 4 26 10 52 14 113 15 365 91 480
145 1 1 36 -22 78 -50z m-4915 -364 c131 -19 256 -57 380 -115 235 -108 457
-148 672 -121 74 9 70 4 -100 -107 -238 -156 -428 -238 -647 -278 -137 -25
-474 -25 -670 0 -366 46 -948 171 -1375 294 l-64 19 129 11 c171 16 332 50
583 124 114 33 250 73 302 88 124 36 307 77 395 89 110 14 291 12 395 -4z
m4715 -214 c110 -19 318 -40 504 -52 228 -14 650 -7 739 13 34 8 62 13 62 11
0 -9 -145 -95 -235 -140 -358 -179 -774 -255 -1315 -239 -329 9 -520 19 -520
25 0 3 35 21 78 40 125 56 283 149 435 258 110 79 148 101 167 98 14 -2 52 -9
85 -14z"/>
<path d="M3345 2644 c-148 -21 -244 -49 -350 -102 -196 -97 -354 -263 -435
-458 -26 -64 -64 -203 -57 -210 5 -5 530 -154 542 -154 7 0 16 15 19 34 11 59
75 174 126 226 30 31 76 63 117 83 62 29 77 32 163 32 76 0 105 -5 142 -22 72
-33 112 -68 142 -123 56 -103 53 -230 -7 -344 -46 -87 -132 -172 -707 -707
l-520 -483 0 -208 0 -208 960 0 960 0 0 280 0 280 -485 2 -485 3 251 225 c421
378 556 532 627 717 46 119 57 184 55 328 -1 154 -22 244 -84 374 -57 117
-186 247 -307 310 -104 54 -203 87 -312 107 -86 15 -300 26 -355 18z"/>
<path d="M7965 2639 c-360 -46 -659 -281 -769 -607 -14 -40 -28 -91 -31 -115
l-7 -44 109 -31 c59 -18 183 -53 274 -80 l166 -48 22 67 c41 129 132 237 240
287 47 22 70 27 146 27 110 0 176 -21 238 -75 66 -59 92 -124 92 -235 0 -81
-3 -97 -31 -155 -18 -36 -56 -94 -86 -130 -30 -36 -303 -294 -606 -575 l-550
-510 -1 -207 -1 -208 965 0 965 0 -2 278 -3 277 -484 5 -484 5 289 261 c381
343 472 444 559 619 68 140 80 193 79 380 0 178 -11 237 -68 360 -121 259
-379 418 -737 455 -116 11 -184 11 -284 -1z"/>
<path d="M7 2593 c-4 -3 -7 -588 -7 -1300 l0 -1293 305 0 305 0 0 425 0 425
224 0 224 0 274 -422 274 -423 352 -3 c194 -1 352 0 352 4 0 3 -137 210 -305
459 -168 250 -305 458 -305 462 0 5 26 21 58 37 296 145 477 459 459 796 -12
216 -92 402 -241 559 -150 157 -340 246 -577 271 -111 11 -1381 14 -1392 3z
m1354 -557 c104 -24 183 -85 231 -179 26 -51 35 -163 19 -224 -17 -63 -70
-134 -131 -175 -93 -63 -129 -68 -522 -68 l-348 0 0 330 0 330 348 0 c253 0
362 -4 403 -14z"/>
<path d="M4810 1301 l0 -1301 305 0 305 0 0 364 0 365 398 3 c371 4 402 6 477
26 174 48 324 139 447 272 169 182 258 430 245 680 -21 371 -256 699 -591 825
-155 58 -143 58 -893 62 l-693 4 0 -1300z m1371 706 c70 -34 142 -109 177
-185 24 -50 27 -69 27 -162 0 -93 -3 -112 -27 -162 -35 -76 -107 -151 -177
-185 l-56 -28 -352 -3 -353 -3 0 381 0 381 353 -3 352 -3 56 -28z"/>
</g>
</svg>
